<svg width="30" height="27" viewBox="0 0 30 27" fill="none" xmlns="http://www.w3.org/2000/svg">
<path d="M16.8754 8.81513V7.33321C15.2231 5.41886 14.1157 3.15116 13.7056 0.730526C13.5826 0.0185754 12.5924 -0.260931 12.0767 0.292808C10.8405 1.60596 9.86783 3.14589 9.2116 4.85457C11.2154 6.8744 13.899 8.26139 16.8754 8.81513ZM23.4377 3.37266C20.8479 3.37266 18.7504 5.26592 18.7504 7.5969V10.7295C12.6334 10.4025 7.44213 7.01152 5.09845 2.20189C4.7762 1.54268 3.73912 1.50576 3.39929 2.15443C2.42667 4.0055 1.8759 6.0728 1.8759 8.25611C1.8759 11.9899 3.87388 15.4758 6.86207 18.0599C7.63548 18.7297 8.39132 19.2834 9.14129 19.7897L0.709924 21.6883C0.0829909 21.8306 -0.19825 22.4846 0.153301 22.975C1.1728 24.3937 3.69225 26.7985 9.12958 26.9989C9.59831 27.0147 10.067 26.8618 10.4245 26.5823L14.2446 23.6237H18.7504C23.9299 23.6237 28.1251 19.853 28.1251 15.191V6.74783L30 3.37266H23.4377ZM23.4377 8.44069C22.9221 8.44069 22.5002 8.06099 22.5002 7.5969C22.5002 7.13281 22.9221 6.75311 23.4377 6.75311C23.9533 6.75311 24.3752 7.13281 24.3752 7.5969C24.3752 8.06099 23.9533 8.44069 23.4377 8.44069Z" fill="white"/>
</svg>
